<mxfile host="app.diagrams.net" agent="Mozilla/5.0 (Windows NT 10.0; Win64; x64) AppleWebKit/537.36 (KHTML, like Gecko) Chrome/129.0.0.0 Safari/537.36" version="24.7.17">
  <diagram name="Halaman-1" id="dUmekptcbVkBWyl-2KL0">
    <mxGraphModel grid="0" page="0" gridSize="10" guides="1" tooltips="1" connect="1" arrows="1" fold="1" pageScale="1" pageWidth="827" pageHeight="1169" math="0" shadow="0">
      <root>
        <mxCell id="0" />
        <mxCell id="1" parent="0" />
        <mxCell id="qmjsJyWAmWsWZpzAhETN-1" value="ANGGOTA" style="shape=table;startSize=25;container=1;collapsible=0;childLayout=tableLayout;fixedRows=1;rowLines=1;fontStyle=1;align=center;resizeLast=1;fillColor=#fa6800;fontColor=#000000;strokeColor=#C73500;" vertex="1" parent="1">
          <mxGeometry x="20" y="232" width="170" height="179" as="geometry" />
        </mxCell>
        <mxCell id="qmjsJyWAmWsWZpzAhETN-2" style="shape=tableRow;horizontal=0;startSize=0;swimlaneHead=0;swimlaneBody=0;fillColor=none;collapsible=0;dropTarget=0;points=[[0,0.5],[1,0.5]];portConstraint=eastwest;top=0;left=0;right=0;bottom=0;" vertex="1" parent="qmjsJyWAmWsWZpzAhETN-1">
          <mxGeometry y="25" width="170" height="22" as="geometry" />
        </mxCell>
        <mxCell id="qmjsJyWAmWsWZpzAhETN-3" value="int" style="shape=partialRectangle;connectable=0;fillColor=none;top=0;left=0;bottom=0;right=0;align=left;spacingLeft=2;overflow=hidden;fontSize=11;" vertex="1" parent="qmjsJyWAmWsWZpzAhETN-2">
          <mxGeometry width="42" height="22" as="geometry">
            <mxRectangle width="42" height="22" as="alternateBounds" />
          </mxGeometry>
        </mxCell>
        <mxCell id="qmjsJyWAmWsWZpzAhETN-4" value="anggota_id" style="shape=partialRectangle;connectable=0;fillColor=none;top=0;left=0;bottom=0;right=0;align=left;spacingLeft=2;overflow=hidden;fontSize=11;" vertex="1" parent="qmjsJyWAmWsWZpzAhETN-2">
          <mxGeometry x="42" width="128" height="22" as="geometry">
            <mxRectangle width="128" height="22" as="alternateBounds" />
          </mxGeometry>
        </mxCell>
        <mxCell id="qmjsJyWAmWsWZpzAhETN-5" style="shape=tableRow;horizontal=0;startSize=0;swimlaneHead=0;swimlaneBody=0;fillColor=none;collapsible=0;dropTarget=0;points=[[0,0.5],[1,0.5]];portConstraint=eastwest;top=0;left=0;right=0;bottom=0;" vertex="1" parent="qmjsJyWAmWsWZpzAhETN-1">
          <mxGeometry y="47" width="170" height="22" as="geometry" />
        </mxCell>
        <mxCell id="qmjsJyWAmWsWZpzAhETN-6" value="varchar" style="shape=partialRectangle;connectable=0;fillColor=none;top=0;left=0;bottom=0;right=0;align=left;spacingLeft=2;overflow=hidden;fontSize=11;" vertex="1" parent="qmjsJyWAmWsWZpzAhETN-5">
          <mxGeometry width="42" height="22" as="geometry">
            <mxRectangle width="42" height="22" as="alternateBounds" />
          </mxGeometry>
        </mxCell>
        <mxCell id="qmjsJyWAmWsWZpzAhETN-7" value="nama_anggota" style="shape=partialRectangle;connectable=0;fillColor=none;top=0;left=0;bottom=0;right=0;align=left;spacingLeft=2;overflow=hidden;fontSize=11;" vertex="1" parent="qmjsJyWAmWsWZpzAhETN-5">
          <mxGeometry x="42" width="128" height="22" as="geometry">
            <mxRectangle width="128" height="22" as="alternateBounds" />
          </mxGeometry>
        </mxCell>
        <mxCell id="qmjsJyWAmWsWZpzAhETN-8" style="shape=tableRow;horizontal=0;startSize=0;swimlaneHead=0;swimlaneBody=0;fillColor=none;collapsible=0;dropTarget=0;points=[[0,0.5],[1,0.5]];portConstraint=eastwest;top=0;left=0;right=0;bottom=0;" vertex="1" parent="qmjsJyWAmWsWZpzAhETN-1">
          <mxGeometry y="69" width="170" height="22" as="geometry" />
        </mxCell>
        <mxCell id="qmjsJyWAmWsWZpzAhETN-9" value="text" style="shape=partialRectangle;connectable=0;fillColor=none;top=0;left=0;bottom=0;right=0;align=left;spacingLeft=2;overflow=hidden;fontSize=11;" vertex="1" parent="qmjsJyWAmWsWZpzAhETN-8">
          <mxGeometry width="42" height="22" as="geometry">
            <mxRectangle width="42" height="22" as="alternateBounds" />
          </mxGeometry>
        </mxCell>
        <mxCell id="qmjsJyWAmWsWZpzAhETN-10" value="alamat_anggota" style="shape=partialRectangle;connectable=0;fillColor=none;top=0;left=0;bottom=0;right=0;align=left;spacingLeft=2;overflow=hidden;fontSize=11;" vertex="1" parent="qmjsJyWAmWsWZpzAhETN-8">
          <mxGeometry x="42" width="128" height="22" as="geometry">
            <mxRectangle width="128" height="22" as="alternateBounds" />
          </mxGeometry>
        </mxCell>
        <mxCell id="qmjsJyWAmWsWZpzAhETN-11" style="shape=tableRow;horizontal=0;startSize=0;swimlaneHead=0;swimlaneBody=0;fillColor=none;collapsible=0;dropTarget=0;points=[[0,0.5],[1,0.5]];portConstraint=eastwest;top=0;left=0;right=0;bottom=0;" vertex="1" parent="qmjsJyWAmWsWZpzAhETN-1">
          <mxGeometry y="91" width="170" height="22" as="geometry" />
        </mxCell>
        <mxCell id="qmjsJyWAmWsWZpzAhETN-12" value="varchar" style="shape=partialRectangle;connectable=0;fillColor=none;top=0;left=0;bottom=0;right=0;align=left;spacingLeft=2;overflow=hidden;fontSize=11;" vertex="1" parent="qmjsJyWAmWsWZpzAhETN-11">
          <mxGeometry width="42" height="22" as="geometry">
            <mxRectangle width="42" height="22" as="alternateBounds" />
          </mxGeometry>
        </mxCell>
        <mxCell id="qmjsJyWAmWsWZpzAhETN-13" value="telepon_anggota" style="shape=partialRectangle;connectable=0;fillColor=none;top=0;left=0;bottom=0;right=0;align=left;spacingLeft=2;overflow=hidden;fontSize=11;" vertex="1" parent="qmjsJyWAmWsWZpzAhETN-11">
          <mxGeometry x="42" width="128" height="22" as="geometry">
            <mxRectangle width="128" height="22" as="alternateBounds" />
          </mxGeometry>
        </mxCell>
        <mxCell id="qmjsJyWAmWsWZpzAhETN-14" style="shape=tableRow;horizontal=0;startSize=0;swimlaneHead=0;swimlaneBody=0;fillColor=none;collapsible=0;dropTarget=0;points=[[0,0.5],[1,0.5]];portConstraint=eastwest;top=0;left=0;right=0;bottom=0;" vertex="1" parent="qmjsJyWAmWsWZpzAhETN-1">
          <mxGeometry y="113" width="170" height="22" as="geometry" />
        </mxCell>
        <mxCell id="qmjsJyWAmWsWZpzAhETN-15" value="varchar" style="shape=partialRectangle;connectable=0;fillColor=none;top=0;left=0;bottom=0;right=0;align=left;spacingLeft=2;overflow=hidden;fontSize=11;" vertex="1" parent="qmjsJyWAmWsWZpzAhETN-14">
          <mxGeometry width="42" height="22" as="geometry">
            <mxRectangle width="42" height="22" as="alternateBounds" />
          </mxGeometry>
        </mxCell>
        <mxCell id="qmjsJyWAmWsWZpzAhETN-16" value="email" style="shape=partialRectangle;connectable=0;fillColor=none;top=0;left=0;bottom=0;right=0;align=left;spacingLeft=2;overflow=hidden;fontSize=11;" vertex="1" parent="qmjsJyWAmWsWZpzAhETN-14">
          <mxGeometry x="42" width="128" height="22" as="geometry">
            <mxRectangle width="128" height="22" as="alternateBounds" />
          </mxGeometry>
        </mxCell>
        <mxCell id="qmjsJyWAmWsWZpzAhETN-17" style="shape=tableRow;horizontal=0;startSize=0;swimlaneHead=0;swimlaneBody=0;fillColor=none;collapsible=0;dropTarget=0;points=[[0,0.5],[1,0.5]];portConstraint=eastwest;top=0;left=0;right=0;bottom=0;" vertex="1" parent="qmjsJyWAmWsWZpzAhETN-1">
          <mxGeometry y="135" width="170" height="22" as="geometry" />
        </mxCell>
        <mxCell id="qmjsJyWAmWsWZpzAhETN-18" value="date" style="shape=partialRectangle;connectable=0;fillColor=none;top=0;left=0;bottom=0;right=0;align=left;spacingLeft=2;overflow=hidden;fontSize=11;" vertex="1" parent="qmjsJyWAmWsWZpzAhETN-17">
          <mxGeometry width="42" height="22" as="geometry">
            <mxRectangle width="42" height="22" as="alternateBounds" />
          </mxGeometry>
        </mxCell>
        <mxCell id="qmjsJyWAmWsWZpzAhETN-19" value="tanggal_bergabung" style="shape=partialRectangle;connectable=0;fillColor=none;top=0;left=0;bottom=0;right=0;align=left;spacingLeft=2;overflow=hidden;fontSize=11;" vertex="1" parent="qmjsJyWAmWsWZpzAhETN-17">
          <mxGeometry x="42" width="128" height="22" as="geometry">
            <mxRectangle width="128" height="22" as="alternateBounds" />
          </mxGeometry>
        </mxCell>
        <mxCell id="qmjsJyWAmWsWZpzAhETN-20" style="shape=tableRow;horizontal=0;startSize=0;swimlaneHead=0;swimlaneBody=0;fillColor=none;collapsible=0;dropTarget=0;points=[[0,0.5],[1,0.5]];portConstraint=eastwest;top=0;left=0;right=0;bottom=0;" vertex="1" parent="qmjsJyWAmWsWZpzAhETN-1">
          <mxGeometry y="157" width="170" height="22" as="geometry" />
        </mxCell>
        <mxCell id="qmjsJyWAmWsWZpzAhETN-21" value="enum" style="shape=partialRectangle;connectable=0;fillColor=none;top=0;left=0;bottom=0;right=0;align=left;spacingLeft=2;overflow=hidden;fontSize=11;" vertex="1" parent="qmjsJyWAmWsWZpzAhETN-20">
          <mxGeometry width="42" height="22" as="geometry">
            <mxRectangle width="42" height="22" as="alternateBounds" />
          </mxGeometry>
        </mxCell>
        <mxCell id="qmjsJyWAmWsWZpzAhETN-22" value="status_keanggotaan" style="shape=partialRectangle;connectable=0;fillColor=none;top=0;left=0;bottom=0;right=0;align=left;spacingLeft=2;overflow=hidden;fontSize=11;" vertex="1" parent="qmjsJyWAmWsWZpzAhETN-20">
          <mxGeometry x="42" width="128" height="22" as="geometry">
            <mxRectangle width="128" height="22" as="alternateBounds" />
          </mxGeometry>
        </mxCell>
        <mxCell id="qmjsJyWAmWsWZpzAhETN-23" value="KATEGORI_BUKU" style="shape=table;startSize=25;container=1;collapsible=0;childLayout=tableLayout;fixedRows=1;rowLines=1;fontStyle=1;align=center;resizeLast=1;fillColor=#fa6800;fontColor=#000000;strokeColor=#C73500;" vertex="1" parent="1">
          <mxGeometry x="305" y="20" width="162" height="91" as="geometry" />
        </mxCell>
        <mxCell id="qmjsJyWAmWsWZpzAhETN-24" style="shape=tableRow;horizontal=0;startSize=0;swimlaneHead=0;swimlaneBody=0;fillColor=none;collapsible=0;dropTarget=0;points=[[0,0.5],[1,0.5]];portConstraint=eastwest;top=0;left=0;right=0;bottom=0;" vertex="1" parent="qmjsJyWAmWsWZpzAhETN-23">
          <mxGeometry y="25" width="162" height="22" as="geometry" />
        </mxCell>
        <mxCell id="qmjsJyWAmWsWZpzAhETN-25" value="int" style="shape=partialRectangle;connectable=0;fillColor=none;top=0;left=0;bottom=0;right=0;align=left;spacingLeft=2;overflow=hidden;fontSize=11;" vertex="1" parent="qmjsJyWAmWsWZpzAhETN-24">
          <mxGeometry width="42" height="22" as="geometry">
            <mxRectangle width="42" height="22" as="alternateBounds" />
          </mxGeometry>
        </mxCell>
        <mxCell id="qmjsJyWAmWsWZpzAhETN-26" value="kategori_id" style="shape=partialRectangle;connectable=0;fillColor=none;top=0;left=0;bottom=0;right=0;align=left;spacingLeft=2;overflow=hidden;fontSize=11;" vertex="1" parent="qmjsJyWAmWsWZpzAhETN-24">
          <mxGeometry x="42" width="120" height="22" as="geometry">
            <mxRectangle width="120" height="22" as="alternateBounds" />
          </mxGeometry>
        </mxCell>
        <mxCell id="qmjsJyWAmWsWZpzAhETN-27" style="shape=tableRow;horizontal=0;startSize=0;swimlaneHead=0;swimlaneBody=0;fillColor=none;collapsible=0;dropTarget=0;points=[[0,0.5],[1,0.5]];portConstraint=eastwest;top=0;left=0;right=0;bottom=0;" vertex="1" parent="qmjsJyWAmWsWZpzAhETN-23">
          <mxGeometry y="47" width="162" height="22" as="geometry" />
        </mxCell>
        <mxCell id="qmjsJyWAmWsWZpzAhETN-28" value="varchar" style="shape=partialRectangle;connectable=0;fillColor=none;top=0;left=0;bottom=0;right=0;align=left;spacingLeft=2;overflow=hidden;fontSize=11;" vertex="1" parent="qmjsJyWAmWsWZpzAhETN-27">
          <mxGeometry width="42" height="22" as="geometry">
            <mxRectangle width="42" height="22" as="alternateBounds" />
          </mxGeometry>
        </mxCell>
        <mxCell id="qmjsJyWAmWsWZpzAhETN-29" value="nama_kategori" style="shape=partialRectangle;connectable=0;fillColor=none;top=0;left=0;bottom=0;right=0;align=left;spacingLeft=2;overflow=hidden;fontSize=11;" vertex="1" parent="qmjsJyWAmWsWZpzAhETN-27">
          <mxGeometry x="42" width="120" height="22" as="geometry">
            <mxRectangle width="120" height="22" as="alternateBounds" />
          </mxGeometry>
        </mxCell>
        <mxCell id="qmjsJyWAmWsWZpzAhETN-30" style="shape=tableRow;horizontal=0;startSize=0;swimlaneHead=0;swimlaneBody=0;fillColor=none;collapsible=0;dropTarget=0;points=[[0,0.5],[1,0.5]];portConstraint=eastwest;top=0;left=0;right=0;bottom=0;" vertex="1" parent="qmjsJyWAmWsWZpzAhETN-23">
          <mxGeometry y="69" width="162" height="22" as="geometry" />
        </mxCell>
        <mxCell id="qmjsJyWAmWsWZpzAhETN-31" value="text" style="shape=partialRectangle;connectable=0;fillColor=none;top=0;left=0;bottom=0;right=0;align=left;spacingLeft=2;overflow=hidden;fontSize=11;" vertex="1" parent="qmjsJyWAmWsWZpzAhETN-30">
          <mxGeometry width="42" height="22" as="geometry">
            <mxRectangle width="42" height="22" as="alternateBounds" />
          </mxGeometry>
        </mxCell>
        <mxCell id="qmjsJyWAmWsWZpzAhETN-32" value="deskripsi_kategori" style="shape=partialRectangle;connectable=0;fillColor=none;top=0;left=0;bottom=0;right=0;align=left;spacingLeft=2;overflow=hidden;fontSize=11;" vertex="1" parent="qmjsJyWAmWsWZpzAhETN-30">
          <mxGeometry x="42" width="120" height="22" as="geometry">
            <mxRectangle width="120" height="22" as="alternateBounds" />
          </mxGeometry>
        </mxCell>
        <mxCell id="qmjsJyWAmWsWZpzAhETN-33" value="BUKU" style="shape=table;startSize=25;container=1;collapsible=0;childLayout=tableLayout;fixedRows=1;rowLines=1;fontStyle=1;align=center;resizeLast=1;fillColor=#fa6800;fontColor=#000000;strokeColor=#C73500;" vertex="1" parent="1">
          <mxGeometry x="308" y="210" width="156" height="223" as="geometry" />
        </mxCell>
        <mxCell id="qmjsJyWAmWsWZpzAhETN-34" style="shape=tableRow;horizontal=0;startSize=0;swimlaneHead=0;swimlaneBody=0;fillColor=none;collapsible=0;dropTarget=0;points=[[0,0.5],[1,0.5]];portConstraint=eastwest;top=0;left=0;right=0;bottom=0;" vertex="1" parent="qmjsJyWAmWsWZpzAhETN-33">
          <mxGeometry y="25" width="156" height="22" as="geometry" />
        </mxCell>
        <mxCell id="qmjsJyWAmWsWZpzAhETN-35" value="int" style="shape=partialRectangle;connectable=0;fillColor=none;top=0;left=0;bottom=0;right=0;align=left;spacingLeft=2;overflow=hidden;fontSize=11;" vertex="1" parent="qmjsJyWAmWsWZpzAhETN-34">
          <mxGeometry width="42" height="22" as="geometry">
            <mxRectangle width="42" height="22" as="alternateBounds" />
          </mxGeometry>
        </mxCell>
        <mxCell id="qmjsJyWAmWsWZpzAhETN-36" value="buku_id" style="shape=partialRectangle;connectable=0;fillColor=none;top=0;left=0;bottom=0;right=0;align=left;spacingLeft=2;overflow=hidden;fontSize=11;" vertex="1" parent="qmjsJyWAmWsWZpzAhETN-34">
          <mxGeometry x="42" width="114" height="22" as="geometry">
            <mxRectangle width="114" height="22" as="alternateBounds" />
          </mxGeometry>
        </mxCell>
        <mxCell id="qmjsJyWAmWsWZpzAhETN-37" style="shape=tableRow;horizontal=0;startSize=0;swimlaneHead=0;swimlaneBody=0;fillColor=none;collapsible=0;dropTarget=0;points=[[0,0.5],[1,0.5]];portConstraint=eastwest;top=0;left=0;right=0;bottom=0;" vertex="1" parent="qmjsJyWAmWsWZpzAhETN-33">
          <mxGeometry y="47" width="156" height="22" as="geometry" />
        </mxCell>
        <mxCell id="qmjsJyWAmWsWZpzAhETN-38" value="varchar" style="shape=partialRectangle;connectable=0;fillColor=none;top=0;left=0;bottom=0;right=0;align=left;spacingLeft=2;overflow=hidden;fontSize=11;" vertex="1" parent="qmjsJyWAmWsWZpzAhETN-37">
          <mxGeometry width="42" height="22" as="geometry">
            <mxRectangle width="42" height="22" as="alternateBounds" />
          </mxGeometry>
        </mxCell>
        <mxCell id="qmjsJyWAmWsWZpzAhETN-39" value="judul" style="shape=partialRectangle;connectable=0;fillColor=none;top=0;left=0;bottom=0;right=0;align=left;spacingLeft=2;overflow=hidden;fontSize=11;" vertex="1" parent="qmjsJyWAmWsWZpzAhETN-37">
          <mxGeometry x="42" width="114" height="22" as="geometry">
            <mxRectangle width="114" height="22" as="alternateBounds" />
          </mxGeometry>
        </mxCell>
        <mxCell id="qmjsJyWAmWsWZpzAhETN-40" style="shape=tableRow;horizontal=0;startSize=0;swimlaneHead=0;swimlaneBody=0;fillColor=none;collapsible=0;dropTarget=0;points=[[0,0.5],[1,0.5]];portConstraint=eastwest;top=0;left=0;right=0;bottom=0;" vertex="1" parent="qmjsJyWAmWsWZpzAhETN-33">
          <mxGeometry y="69" width="156" height="22" as="geometry" />
        </mxCell>
        <mxCell id="qmjsJyWAmWsWZpzAhETN-41" value="varchar" style="shape=partialRectangle;connectable=0;fillColor=none;top=0;left=0;bottom=0;right=0;align=left;spacingLeft=2;overflow=hidden;fontSize=11;" vertex="1" parent="qmjsJyWAmWsWZpzAhETN-40">
          <mxGeometry width="42" height="22" as="geometry">
            <mxRectangle width="42" height="22" as="alternateBounds" />
          </mxGeometry>
        </mxCell>
        <mxCell id="qmjsJyWAmWsWZpzAhETN-42" value="penulis" style="shape=partialRectangle;connectable=0;fillColor=none;top=0;left=0;bottom=0;right=0;align=left;spacingLeft=2;overflow=hidden;fontSize=11;" vertex="1" parent="qmjsJyWAmWsWZpzAhETN-40">
          <mxGeometry x="42" width="114" height="22" as="geometry">
            <mxRectangle width="114" height="22" as="alternateBounds" />
          </mxGeometry>
        </mxCell>
        <mxCell id="qmjsJyWAmWsWZpzAhETN-43" style="shape=tableRow;horizontal=0;startSize=0;swimlaneHead=0;swimlaneBody=0;fillColor=none;collapsible=0;dropTarget=0;points=[[0,0.5],[1,0.5]];portConstraint=eastwest;top=0;left=0;right=0;bottom=0;" vertex="1" parent="qmjsJyWAmWsWZpzAhETN-33">
          <mxGeometry y="91" width="156" height="22" as="geometry" />
        </mxCell>
        <mxCell id="qmjsJyWAmWsWZpzAhETN-44" value="varchar" style="shape=partialRectangle;connectable=0;fillColor=none;top=0;left=0;bottom=0;right=0;align=left;spacingLeft=2;overflow=hidden;fontSize=11;" vertex="1" parent="qmjsJyWAmWsWZpzAhETN-43">
          <mxGeometry width="42" height="22" as="geometry">
            <mxRectangle width="42" height="22" as="alternateBounds" />
          </mxGeometry>
        </mxCell>
        <mxCell id="qmjsJyWAmWsWZpzAhETN-45" value="penerbit" style="shape=partialRectangle;connectable=0;fillColor=none;top=0;left=0;bottom=0;right=0;align=left;spacingLeft=2;overflow=hidden;fontSize=11;" vertex="1" parent="qmjsJyWAmWsWZpzAhETN-43">
          <mxGeometry x="42" width="114" height="22" as="geometry">
            <mxRectangle width="114" height="22" as="alternateBounds" />
          </mxGeometry>
        </mxCell>
        <mxCell id="qmjsJyWAmWsWZpzAhETN-46" style="shape=tableRow;horizontal=0;startSize=0;swimlaneHead=0;swimlaneBody=0;fillColor=none;collapsible=0;dropTarget=0;points=[[0,0.5],[1,0.5]];portConstraint=eastwest;top=0;left=0;right=0;bottom=0;" vertex="1" parent="qmjsJyWAmWsWZpzAhETN-33">
          <mxGeometry y="113" width="156" height="22" as="geometry" />
        </mxCell>
        <mxCell id="qmjsJyWAmWsWZpzAhETN-47" value="year" style="shape=partialRectangle;connectable=0;fillColor=none;top=0;left=0;bottom=0;right=0;align=left;spacingLeft=2;overflow=hidden;fontSize=11;" vertex="1" parent="qmjsJyWAmWsWZpzAhETN-46">
          <mxGeometry width="42" height="22" as="geometry">
            <mxRectangle width="42" height="22" as="alternateBounds" />
          </mxGeometry>
        </mxCell>
        <mxCell id="qmjsJyWAmWsWZpzAhETN-48" value="tahun_terbit" style="shape=partialRectangle;connectable=0;fillColor=none;top=0;left=0;bottom=0;right=0;align=left;spacingLeft=2;overflow=hidden;fontSize=11;" vertex="1" parent="qmjsJyWAmWsWZpzAhETN-46">
          <mxGeometry x="42" width="114" height="22" as="geometry">
            <mxRectangle width="114" height="22" as="alternateBounds" />
          </mxGeometry>
        </mxCell>
        <mxCell id="qmjsJyWAmWsWZpzAhETN-49" style="shape=tableRow;horizontal=0;startSize=0;swimlaneHead=0;swimlaneBody=0;fillColor=none;collapsible=0;dropTarget=0;points=[[0,0.5],[1,0.5]];portConstraint=eastwest;top=0;left=0;right=0;bottom=0;" vertex="1" parent="qmjsJyWAmWsWZpzAhETN-33">
          <mxGeometry y="135" width="156" height="22" as="geometry" />
        </mxCell>
        <mxCell id="qmjsJyWAmWsWZpzAhETN-50" value="int" style="shape=partialRectangle;connectable=0;fillColor=none;top=0;left=0;bottom=0;right=0;align=left;spacingLeft=2;overflow=hidden;fontSize=11;" vertex="1" parent="qmjsJyWAmWsWZpzAhETN-49">
          <mxGeometry width="42" height="22" as="geometry">
            <mxRectangle width="42" height="22" as="alternateBounds" />
          </mxGeometry>
        </mxCell>
        <mxCell id="qmjsJyWAmWsWZpzAhETN-51" value="kategori_id" style="shape=partialRectangle;connectable=0;fillColor=none;top=0;left=0;bottom=0;right=0;align=left;spacingLeft=2;overflow=hidden;fontSize=11;" vertex="1" parent="qmjsJyWAmWsWZpzAhETN-49">
          <mxGeometry x="42" width="114" height="22" as="geometry">
            <mxRectangle width="114" height="22" as="alternateBounds" />
          </mxGeometry>
        </mxCell>
        <mxCell id="qmjsJyWAmWsWZpzAhETN-52" style="shape=tableRow;horizontal=0;startSize=0;swimlaneHead=0;swimlaneBody=0;fillColor=none;collapsible=0;dropTarget=0;points=[[0,0.5],[1,0.5]];portConstraint=eastwest;top=0;left=0;right=0;bottom=0;" vertex="1" parent="qmjsJyWAmWsWZpzAhETN-33">
          <mxGeometry y="157" width="156" height="22" as="geometry" />
        </mxCell>
        <mxCell id="qmjsJyWAmWsWZpzAhETN-53" value="varchar" style="shape=partialRectangle;connectable=0;fillColor=none;top=0;left=0;bottom=0;right=0;align=left;spacingLeft=2;overflow=hidden;fontSize=11;" vertex="1" parent="qmjsJyWAmWsWZpzAhETN-52">
          <mxGeometry width="42" height="22" as="geometry">
            <mxRectangle width="42" height="22" as="alternateBounds" />
          </mxGeometry>
        </mxCell>
        <mxCell id="qmjsJyWAmWsWZpzAhETN-54" value="isbn" style="shape=partialRectangle;connectable=0;fillColor=none;top=0;left=0;bottom=0;right=0;align=left;spacingLeft=2;overflow=hidden;fontSize=11;" vertex="1" parent="qmjsJyWAmWsWZpzAhETN-52">
          <mxGeometry x="42" width="114" height="22" as="geometry">
            <mxRectangle width="114" height="22" as="alternateBounds" />
          </mxGeometry>
        </mxCell>
        <mxCell id="qmjsJyWAmWsWZpzAhETN-55" style="shape=tableRow;horizontal=0;startSize=0;swimlaneHead=0;swimlaneBody=0;fillColor=none;collapsible=0;dropTarget=0;points=[[0,0.5],[1,0.5]];portConstraint=eastwest;top=0;left=0;right=0;bottom=0;" vertex="1" parent="qmjsJyWAmWsWZpzAhETN-33">
          <mxGeometry y="179" width="156" height="22" as="geometry" />
        </mxCell>
        <mxCell id="qmjsJyWAmWsWZpzAhETN-56" value="int" style="shape=partialRectangle;connectable=0;fillColor=none;top=0;left=0;bottom=0;right=0;align=left;spacingLeft=2;overflow=hidden;fontSize=11;" vertex="1" parent="qmjsJyWAmWsWZpzAhETN-55">
          <mxGeometry width="42" height="22" as="geometry">
            <mxRectangle width="42" height="22" as="alternateBounds" />
          </mxGeometry>
        </mxCell>
        <mxCell id="qmjsJyWAmWsWZpzAhETN-57" value="jumlah_halaman" style="shape=partialRectangle;connectable=0;fillColor=none;top=0;left=0;bottom=0;right=0;align=left;spacingLeft=2;overflow=hidden;fontSize=11;" vertex="1" parent="qmjsJyWAmWsWZpzAhETN-55">
          <mxGeometry x="42" width="114" height="22" as="geometry">
            <mxRectangle width="114" height="22" as="alternateBounds" />
          </mxGeometry>
        </mxCell>
        <mxCell id="qmjsJyWAmWsWZpzAhETN-58" style="shape=tableRow;horizontal=0;startSize=0;swimlaneHead=0;swimlaneBody=0;fillColor=none;collapsible=0;dropTarget=0;points=[[0,0.5],[1,0.5]];portConstraint=eastwest;top=0;left=0;right=0;bottom=0;" vertex="1" parent="qmjsJyWAmWsWZpzAhETN-33">
          <mxGeometry y="201" width="156" height="22" as="geometry" />
        </mxCell>
        <mxCell id="qmjsJyWAmWsWZpzAhETN-59" value="int" style="shape=partialRectangle;connectable=0;fillColor=none;top=0;left=0;bottom=0;right=0;align=left;spacingLeft=2;overflow=hidden;fontSize=11;" vertex="1" parent="qmjsJyWAmWsWZpzAhETN-58">
          <mxGeometry width="42" height="22" as="geometry">
            <mxRectangle width="42" height="22" as="alternateBounds" />
          </mxGeometry>
        </mxCell>
        <mxCell id="qmjsJyWAmWsWZpzAhETN-60" value="stok_tersedia" style="shape=partialRectangle;connectable=0;fillColor=none;top=0;left=0;bottom=0;right=0;align=left;spacingLeft=2;overflow=hidden;fontSize=11;" vertex="1" parent="qmjsJyWAmWsWZpzAhETN-58">
          <mxGeometry x="42" width="114" height="22" as="geometry">
            <mxRectangle width="114" height="22" as="alternateBounds" />
          </mxGeometry>
        </mxCell>
        <mxCell id="qmjsJyWAmWsWZpzAhETN-61" value="PEMINJAMAN" style="shape=table;startSize=25;container=1;collapsible=0;childLayout=tableLayout;fixedRows=1;rowLines=1;fontStyle=1;align=center;resizeLast=1;fillColor=#fa6800;fontColor=#000000;strokeColor=#C73500;" vertex="1" parent="1">
          <mxGeometry x="485" y="532" width="179" height="201" as="geometry" />
        </mxCell>
        <mxCell id="qmjsJyWAmWsWZpzAhETN-62" style="shape=tableRow;horizontal=0;startSize=0;swimlaneHead=0;swimlaneBody=0;fillColor=none;collapsible=0;dropTarget=0;points=[[0,0.5],[1,0.5]];portConstraint=eastwest;top=0;left=0;right=0;bottom=0;" vertex="1" parent="qmjsJyWAmWsWZpzAhETN-61">
          <mxGeometry y="25" width="179" height="22" as="geometry" />
        </mxCell>
        <mxCell id="qmjsJyWAmWsWZpzAhETN-63" value="int" style="shape=partialRectangle;connectable=0;fillColor=none;top=0;left=0;bottom=0;right=0;align=left;spacingLeft=2;overflow=hidden;fontSize=11;" vertex="1" parent="qmjsJyWAmWsWZpzAhETN-62">
          <mxGeometry width="42" height="22" as="geometry">
            <mxRectangle width="42" height="22" as="alternateBounds" />
          </mxGeometry>
        </mxCell>
        <mxCell id="qmjsJyWAmWsWZpzAhETN-64" value="peminjaman_id" style="shape=partialRectangle;connectable=0;fillColor=none;top=0;left=0;bottom=0;right=0;align=left;spacingLeft=2;overflow=hidden;fontSize=11;" vertex="1" parent="qmjsJyWAmWsWZpzAhETN-62">
          <mxGeometry x="42" width="137" height="22" as="geometry">
            <mxRectangle width="137" height="22" as="alternateBounds" />
          </mxGeometry>
        </mxCell>
        <mxCell id="qmjsJyWAmWsWZpzAhETN-65" style="shape=tableRow;horizontal=0;startSize=0;swimlaneHead=0;swimlaneBody=0;fillColor=none;collapsible=0;dropTarget=0;points=[[0,0.5],[1,0.5]];portConstraint=eastwest;top=0;left=0;right=0;bottom=0;" vertex="1" parent="qmjsJyWAmWsWZpzAhETN-61">
          <mxGeometry y="47" width="179" height="22" as="geometry" />
        </mxCell>
        <mxCell id="qmjsJyWAmWsWZpzAhETN-66" value="int" style="shape=partialRectangle;connectable=0;fillColor=none;top=0;left=0;bottom=0;right=0;align=left;spacingLeft=2;overflow=hidden;fontSize=11;" vertex="1" parent="qmjsJyWAmWsWZpzAhETN-65">
          <mxGeometry width="42" height="22" as="geometry">
            <mxRectangle width="42" height="22" as="alternateBounds" />
          </mxGeometry>
        </mxCell>
        <mxCell id="qmjsJyWAmWsWZpzAhETN-67" value="anggota_id" style="shape=partialRectangle;connectable=0;fillColor=none;top=0;left=0;bottom=0;right=0;align=left;spacingLeft=2;overflow=hidden;fontSize=11;" vertex="1" parent="qmjsJyWAmWsWZpzAhETN-65">
          <mxGeometry x="42" width="137" height="22" as="geometry">
            <mxRectangle width="137" height="22" as="alternateBounds" />
          </mxGeometry>
        </mxCell>
        <mxCell id="qmjsJyWAmWsWZpzAhETN-68" style="shape=tableRow;horizontal=0;startSize=0;swimlaneHead=0;swimlaneBody=0;fillColor=none;collapsible=0;dropTarget=0;points=[[0,0.5],[1,0.5]];portConstraint=eastwest;top=0;left=0;right=0;bottom=0;" vertex="1" parent="qmjsJyWAmWsWZpzAhETN-61">
          <mxGeometry y="69" width="179" height="22" as="geometry" />
        </mxCell>
        <mxCell id="qmjsJyWAmWsWZpzAhETN-69" value="int" style="shape=partialRectangle;connectable=0;fillColor=none;top=0;left=0;bottom=0;right=0;align=left;spacingLeft=2;overflow=hidden;fontSize=11;" vertex="1" parent="qmjsJyWAmWsWZpzAhETN-68">
          <mxGeometry width="42" height="22" as="geometry">
            <mxRectangle width="42" height="22" as="alternateBounds" />
          </mxGeometry>
        </mxCell>
        <mxCell id="qmjsJyWAmWsWZpzAhETN-70" value="buku_id" style="shape=partialRectangle;connectable=0;fillColor=none;top=0;left=0;bottom=0;right=0;align=left;spacingLeft=2;overflow=hidden;fontSize=11;" vertex="1" parent="qmjsJyWAmWsWZpzAhETN-68">
          <mxGeometry x="42" width="137" height="22" as="geometry">
            <mxRectangle width="137" height="22" as="alternateBounds" />
          </mxGeometry>
        </mxCell>
        <mxCell id="qmjsJyWAmWsWZpzAhETN-71" style="shape=tableRow;horizontal=0;startSize=0;swimlaneHead=0;swimlaneBody=0;fillColor=none;collapsible=0;dropTarget=0;points=[[0,0.5],[1,0.5]];portConstraint=eastwest;top=0;left=0;right=0;bottom=0;" vertex="1" parent="qmjsJyWAmWsWZpzAhETN-61">
          <mxGeometry y="91" width="179" height="22" as="geometry" />
        </mxCell>
        <mxCell id="qmjsJyWAmWsWZpzAhETN-72" value="date" style="shape=partialRectangle;connectable=0;fillColor=none;top=0;left=0;bottom=0;right=0;align=left;spacingLeft=2;overflow=hidden;fontSize=11;" vertex="1" parent="qmjsJyWAmWsWZpzAhETN-71">
          <mxGeometry width="42" height="22" as="geometry">
            <mxRectangle width="42" height="22" as="alternateBounds" />
          </mxGeometry>
        </mxCell>
        <mxCell id="qmjsJyWAmWsWZpzAhETN-73" value="tanggal_pinjam" style="shape=partialRectangle;connectable=0;fillColor=none;top=0;left=0;bottom=0;right=0;align=left;spacingLeft=2;overflow=hidden;fontSize=11;" vertex="1" parent="qmjsJyWAmWsWZpzAhETN-71">
          <mxGeometry x="42" width="137" height="22" as="geometry">
            <mxRectangle width="137" height="22" as="alternateBounds" />
          </mxGeometry>
        </mxCell>
        <mxCell id="qmjsJyWAmWsWZpzAhETN-74" style="shape=tableRow;horizontal=0;startSize=0;swimlaneHead=0;swimlaneBody=0;fillColor=none;collapsible=0;dropTarget=0;points=[[0,0.5],[1,0.5]];portConstraint=eastwest;top=0;left=0;right=0;bottom=0;" vertex="1" parent="qmjsJyWAmWsWZpzAhETN-61">
          <mxGeometry y="113" width="179" height="22" as="geometry" />
        </mxCell>
        <mxCell id="qmjsJyWAmWsWZpzAhETN-75" value="date" style="shape=partialRectangle;connectable=0;fillColor=none;top=0;left=0;bottom=0;right=0;align=left;spacingLeft=2;overflow=hidden;fontSize=11;" vertex="1" parent="qmjsJyWAmWsWZpzAhETN-74">
          <mxGeometry width="42" height="22" as="geometry">
            <mxRectangle width="42" height="22" as="alternateBounds" />
          </mxGeometry>
        </mxCell>
        <mxCell id="qmjsJyWAmWsWZpzAhETN-76" value="tanggal_kembali" style="shape=partialRectangle;connectable=0;fillColor=none;top=0;left=0;bottom=0;right=0;align=left;spacingLeft=2;overflow=hidden;fontSize=11;" vertex="1" parent="qmjsJyWAmWsWZpzAhETN-74">
          <mxGeometry x="42" width="137" height="22" as="geometry">
            <mxRectangle width="137" height="22" as="alternateBounds" />
          </mxGeometry>
        </mxCell>
        <mxCell id="qmjsJyWAmWsWZpzAhETN-77" style="shape=tableRow;horizontal=0;startSize=0;swimlaneHead=0;swimlaneBody=0;fillColor=none;collapsible=0;dropTarget=0;points=[[0,0.5],[1,0.5]];portConstraint=eastwest;top=0;left=0;right=0;bottom=0;" vertex="1" parent="qmjsJyWAmWsWZpzAhETN-61">
          <mxGeometry y="135" width="179" height="22" as="geometry" />
        </mxCell>
        <mxCell id="qmjsJyWAmWsWZpzAhETN-78" value="date" style="shape=partialRectangle;connectable=0;fillColor=none;top=0;left=0;bottom=0;right=0;align=left;spacingLeft=2;overflow=hidden;fontSize=11;" vertex="1" parent="qmjsJyWAmWsWZpzAhETN-77">
          <mxGeometry width="42" height="22" as="geometry">
            <mxRectangle width="42" height="22" as="alternateBounds" />
          </mxGeometry>
        </mxCell>
        <mxCell id="qmjsJyWAmWsWZpzAhETN-79" value="tanggal_dikembalikan" style="shape=partialRectangle;connectable=0;fillColor=none;top=0;left=0;bottom=0;right=0;align=left;spacingLeft=2;overflow=hidden;fontSize=11;" vertex="1" parent="qmjsJyWAmWsWZpzAhETN-77">
          <mxGeometry x="42" width="137" height="22" as="geometry">
            <mxRectangle width="137" height="22" as="alternateBounds" />
          </mxGeometry>
        </mxCell>
        <mxCell id="qmjsJyWAmWsWZpzAhETN-80" style="shape=tableRow;horizontal=0;startSize=0;swimlaneHead=0;swimlaneBody=0;fillColor=none;collapsible=0;dropTarget=0;points=[[0,0.5],[1,0.5]];portConstraint=eastwest;top=0;left=0;right=0;bottom=0;" vertex="1" parent="qmjsJyWAmWsWZpzAhETN-61">
          <mxGeometry y="157" width="179" height="22" as="geometry" />
        </mxCell>
        <mxCell id="qmjsJyWAmWsWZpzAhETN-81" value="enum" style="shape=partialRectangle;connectable=0;fillColor=none;top=0;left=0;bottom=0;right=0;align=left;spacingLeft=2;overflow=hidden;fontSize=11;" vertex="1" parent="qmjsJyWAmWsWZpzAhETN-80">
          <mxGeometry width="42" height="22" as="geometry">
            <mxRectangle width="42" height="22" as="alternateBounds" />
          </mxGeometry>
        </mxCell>
        <mxCell id="qmjsJyWAmWsWZpzAhETN-82" value="status" style="shape=partialRectangle;connectable=0;fillColor=none;top=0;left=0;bottom=0;right=0;align=left;spacingLeft=2;overflow=hidden;fontSize=11;" vertex="1" parent="qmjsJyWAmWsWZpzAhETN-80">
          <mxGeometry x="42" width="137" height="22" as="geometry">
            <mxRectangle width="137" height="22" as="alternateBounds" />
          </mxGeometry>
        </mxCell>
        <mxCell id="qmjsJyWAmWsWZpzAhETN-83" style="shape=tableRow;horizontal=0;startSize=0;swimlaneHead=0;swimlaneBody=0;fillColor=none;collapsible=0;dropTarget=0;points=[[0,0.5],[1,0.5]];portConstraint=eastwest;top=0;left=0;right=0;bottom=0;" vertex="1" parent="qmjsJyWAmWsWZpzAhETN-61">
          <mxGeometry y="179" width="179" height="22" as="geometry" />
        </mxCell>
        <mxCell id="qmjsJyWAmWsWZpzAhETN-84" value="decimal" style="shape=partialRectangle;connectable=0;fillColor=none;top=0;left=0;bottom=0;right=0;align=left;spacingLeft=2;overflow=hidden;fontSize=11;" vertex="1" parent="qmjsJyWAmWsWZpzAhETN-83">
          <mxGeometry width="42" height="22" as="geometry">
            <mxRectangle width="42" height="22" as="alternateBounds" />
          </mxGeometry>
        </mxCell>
        <mxCell id="qmjsJyWAmWsWZpzAhETN-85" value="denda_terlambat" style="shape=partialRectangle;connectable=0;fillColor=none;top=0;left=0;bottom=0;right=0;align=left;spacingLeft=2;overflow=hidden;fontSize=11;" vertex="1" parent="qmjsJyWAmWsWZpzAhETN-83">
          <mxGeometry x="42" width="137" height="22" as="geometry">
            <mxRectangle width="137" height="22" as="alternateBounds" />
          </mxGeometry>
        </mxCell>
        <mxCell id="qmjsJyWAmWsWZpzAhETN-86" value="PETUGAS" style="shape=table;startSize=25;container=1;collapsible=0;childLayout=tableLayout;fixedRows=1;rowLines=1;fontStyle=1;align=center;resizeLast=1;fillColor=#fa6800;fontColor=#000000;strokeColor=#C73500;" vertex="1" parent="1">
          <mxGeometry x="564" y="232" width="157" height="179" as="geometry" />
        </mxCell>
        <mxCell id="qmjsJyWAmWsWZpzAhETN-87" style="shape=tableRow;horizontal=0;startSize=0;swimlaneHead=0;swimlaneBody=0;fillColor=none;collapsible=0;dropTarget=0;points=[[0,0.5],[1,0.5]];portConstraint=eastwest;top=0;left=0;right=0;bottom=0;" vertex="1" parent="qmjsJyWAmWsWZpzAhETN-86">
          <mxGeometry y="25" width="157" height="22" as="geometry" />
        </mxCell>
        <mxCell id="qmjsJyWAmWsWZpzAhETN-88" value="int" style="shape=partialRectangle;connectable=0;fillColor=none;top=0;left=0;bottom=0;right=0;align=left;spacingLeft=2;overflow=hidden;fontSize=11;" vertex="1" parent="qmjsJyWAmWsWZpzAhETN-87">
          <mxGeometry width="42" height="22" as="geometry">
            <mxRectangle width="42" height="22" as="alternateBounds" />
          </mxGeometry>
        </mxCell>
        <mxCell id="qmjsJyWAmWsWZpzAhETN-89" value="petugas_id" style="shape=partialRectangle;connectable=0;fillColor=none;top=0;left=0;bottom=0;right=0;align=left;spacingLeft=2;overflow=hidden;fontSize=11;" vertex="1" parent="qmjsJyWAmWsWZpzAhETN-87">
          <mxGeometry x="42" width="115" height="22" as="geometry">
            <mxRectangle width="115" height="22" as="alternateBounds" />
          </mxGeometry>
        </mxCell>
        <mxCell id="qmjsJyWAmWsWZpzAhETN-90" style="shape=tableRow;horizontal=0;startSize=0;swimlaneHead=0;swimlaneBody=0;fillColor=none;collapsible=0;dropTarget=0;points=[[0,0.5],[1,0.5]];portConstraint=eastwest;top=0;left=0;right=0;bottom=0;" vertex="1" parent="qmjsJyWAmWsWZpzAhETN-86">
          <mxGeometry y="47" width="157" height="22" as="geometry" />
        </mxCell>
        <mxCell id="qmjsJyWAmWsWZpzAhETN-91" value="varchar" style="shape=partialRectangle;connectable=0;fillColor=none;top=0;left=0;bottom=0;right=0;align=left;spacingLeft=2;overflow=hidden;fontSize=11;" vertex="1" parent="qmjsJyWAmWsWZpzAhETN-90">
          <mxGeometry width="42" height="22" as="geometry">
            <mxRectangle width="42" height="22" as="alternateBounds" />
          </mxGeometry>
        </mxCell>
        <mxCell id="qmjsJyWAmWsWZpzAhETN-92" value="nama_petugas" style="shape=partialRectangle;connectable=0;fillColor=none;top=0;left=0;bottom=0;right=0;align=left;spacingLeft=2;overflow=hidden;fontSize=11;" vertex="1" parent="qmjsJyWAmWsWZpzAhETN-90">
          <mxGeometry x="42" width="115" height="22" as="geometry">
            <mxRectangle width="115" height="22" as="alternateBounds" />
          </mxGeometry>
        </mxCell>
        <mxCell id="qmjsJyWAmWsWZpzAhETN-93" style="shape=tableRow;horizontal=0;startSize=0;swimlaneHead=0;swimlaneBody=0;fillColor=none;collapsible=0;dropTarget=0;points=[[0,0.5],[1,0.5]];portConstraint=eastwest;top=0;left=0;right=0;bottom=0;" vertex="1" parent="qmjsJyWAmWsWZpzAhETN-86">
          <mxGeometry y="69" width="157" height="22" as="geometry" />
        </mxCell>
        <mxCell id="qmjsJyWAmWsWZpzAhETN-94" value="varchar" style="shape=partialRectangle;connectable=0;fillColor=none;top=0;left=0;bottom=0;right=0;align=left;spacingLeft=2;overflow=hidden;fontSize=11;" vertex="1" parent="qmjsJyWAmWsWZpzAhETN-93">
          <mxGeometry width="42" height="22" as="geometry">
            <mxRectangle width="42" height="22" as="alternateBounds" />
          </mxGeometry>
        </mxCell>
        <mxCell id="qmjsJyWAmWsWZpzAhETN-95" value="telepon" style="shape=partialRectangle;connectable=0;fillColor=none;top=0;left=0;bottom=0;right=0;align=left;spacingLeft=2;overflow=hidden;fontSize=11;" vertex="1" parent="qmjsJyWAmWsWZpzAhETN-93">
          <mxGeometry x="42" width="115" height="22" as="geometry">
            <mxRectangle width="115" height="22" as="alternateBounds" />
          </mxGeometry>
        </mxCell>
        <mxCell id="qmjsJyWAmWsWZpzAhETN-96" style="shape=tableRow;horizontal=0;startSize=0;swimlaneHead=0;swimlaneBody=0;fillColor=none;collapsible=0;dropTarget=0;points=[[0,0.5],[1,0.5]];portConstraint=eastwest;top=0;left=0;right=0;bottom=0;" vertex="1" parent="qmjsJyWAmWsWZpzAhETN-86">
          <mxGeometry y="91" width="157" height="22" as="geometry" />
        </mxCell>
        <mxCell id="qmjsJyWAmWsWZpzAhETN-97" value="varchar" style="shape=partialRectangle;connectable=0;fillColor=none;top=0;left=0;bottom=0;right=0;align=left;spacingLeft=2;overflow=hidden;fontSize=11;" vertex="1" parent="qmjsJyWAmWsWZpzAhETN-96">
          <mxGeometry width="42" height="22" as="geometry">
            <mxRectangle width="42" height="22" as="alternateBounds" />
          </mxGeometry>
        </mxCell>
        <mxCell id="qmjsJyWAmWsWZpzAhETN-98" value="email" style="shape=partialRectangle;connectable=0;fillColor=none;top=0;left=0;bottom=0;right=0;align=left;spacingLeft=2;overflow=hidden;fontSize=11;" vertex="1" parent="qmjsJyWAmWsWZpzAhETN-96">
          <mxGeometry x="42" width="115" height="22" as="geometry">
            <mxRectangle width="115" height="22" as="alternateBounds" />
          </mxGeometry>
        </mxCell>
        <mxCell id="qmjsJyWAmWsWZpzAhETN-99" style="shape=tableRow;horizontal=0;startSize=0;swimlaneHead=0;swimlaneBody=0;fillColor=none;collapsible=0;dropTarget=0;points=[[0,0.5],[1,0.5]];portConstraint=eastwest;top=0;left=0;right=0;bottom=0;" vertex="1" parent="qmjsJyWAmWsWZpzAhETN-86">
          <mxGeometry y="113" width="157" height="22" as="geometry" />
        </mxCell>
        <mxCell id="qmjsJyWAmWsWZpzAhETN-100" value="date" style="shape=partialRectangle;connectable=0;fillColor=none;top=0;left=0;bottom=0;right=0;align=left;spacingLeft=2;overflow=hidden;fontSize=11;" vertex="1" parent="qmjsJyWAmWsWZpzAhETN-99">
          <mxGeometry width="42" height="22" as="geometry">
            <mxRectangle width="42" height="22" as="alternateBounds" />
          </mxGeometry>
        </mxCell>
        <mxCell id="qmjsJyWAmWsWZpzAhETN-101" value="tanggal_diterima" style="shape=partialRectangle;connectable=0;fillColor=none;top=0;left=0;bottom=0;right=0;align=left;spacingLeft=2;overflow=hidden;fontSize=11;" vertex="1" parent="qmjsJyWAmWsWZpzAhETN-99">
          <mxGeometry x="42" width="115" height="22" as="geometry">
            <mxRectangle width="115" height="22" as="alternateBounds" />
          </mxGeometry>
        </mxCell>
        <mxCell id="qmjsJyWAmWsWZpzAhETN-102" style="shape=tableRow;horizontal=0;startSize=0;swimlaneHead=0;swimlaneBody=0;fillColor=none;collapsible=0;dropTarget=0;points=[[0,0.5],[1,0.5]];portConstraint=eastwest;top=0;left=0;right=0;bottom=0;" vertex="1" parent="qmjsJyWAmWsWZpzAhETN-86">
          <mxGeometry y="135" width="157" height="22" as="geometry" />
        </mxCell>
        <mxCell id="qmjsJyWAmWsWZpzAhETN-103" value="enum" style="shape=partialRectangle;connectable=0;fillColor=none;top=0;left=0;bottom=0;right=0;align=left;spacingLeft=2;overflow=hidden;fontSize=11;" vertex="1" parent="qmjsJyWAmWsWZpzAhETN-102">
          <mxGeometry width="42" height="22" as="geometry">
            <mxRectangle width="42" height="22" as="alternateBounds" />
          </mxGeometry>
        </mxCell>
        <mxCell id="qmjsJyWAmWsWZpzAhETN-104" value="peran" style="shape=partialRectangle;connectable=0;fillColor=none;top=0;left=0;bottom=0;right=0;align=left;spacingLeft=2;overflow=hidden;fontSize=11;" vertex="1" parent="qmjsJyWAmWsWZpzAhETN-102">
          <mxGeometry x="42" width="115" height="22" as="geometry">
            <mxRectangle width="115" height="22" as="alternateBounds" />
          </mxGeometry>
        </mxCell>
        <mxCell id="qmjsJyWAmWsWZpzAhETN-105" style="shape=tableRow;horizontal=0;startSize=0;swimlaneHead=0;swimlaneBody=0;fillColor=none;collapsible=0;dropTarget=0;points=[[0,0.5],[1,0.5]];portConstraint=eastwest;top=0;left=0;right=0;bottom=0;" vertex="1" parent="qmjsJyWAmWsWZpzAhETN-86">
          <mxGeometry y="157" width="157" height="22" as="geometry" />
        </mxCell>
        <mxCell id="qmjsJyWAmWsWZpzAhETN-106" value="decimal" style="shape=partialRectangle;connectable=0;fillColor=none;top=0;left=0;bottom=0;right=0;align=left;spacingLeft=2;overflow=hidden;fontSize=11;" vertex="1" parent="qmjsJyWAmWsWZpzAhETN-105">
          <mxGeometry width="42" height="22" as="geometry">
            <mxRectangle width="42" height="22" as="alternateBounds" />
          </mxGeometry>
        </mxCell>
        <mxCell id="qmjsJyWAmWsWZpzAhETN-107" value="gaji" style="shape=partialRectangle;connectable=0;fillColor=none;top=0;left=0;bottom=0;right=0;align=left;spacingLeft=2;overflow=hidden;fontSize=11;" vertex="1" parent="qmjsJyWAmWsWZpzAhETN-105">
          <mxGeometry x="42" width="115" height="22" as="geometry">
            <mxRectangle width="115" height="22" as="alternateBounds" />
          </mxGeometry>
        </mxCell>
        <mxCell id="qmjsJyWAmWsWZpzAhETN-108" value="RESERVASI" style="shape=table;startSize=25;container=1;collapsible=0;childLayout=tableLayout;fixedRows=1;rowLines=1;fontStyle=1;align=center;resizeLast=1;fillColor=#fa6800;fontColor=#000000;strokeColor=#C73500;" vertex="1" parent="1">
          <mxGeometry x="141" y="565" width="148" height="135" as="geometry" />
        </mxCell>
        <mxCell id="qmjsJyWAmWsWZpzAhETN-109" style="shape=tableRow;horizontal=0;startSize=0;swimlaneHead=0;swimlaneBody=0;fillColor=none;collapsible=0;dropTarget=0;points=[[0,0.5],[1,0.5]];portConstraint=eastwest;top=0;left=0;right=0;bottom=0;" vertex="1" parent="qmjsJyWAmWsWZpzAhETN-108">
          <mxGeometry y="25" width="148" height="22" as="geometry" />
        </mxCell>
        <mxCell id="qmjsJyWAmWsWZpzAhETN-110" value="int" style="shape=partialRectangle;connectable=0;fillColor=none;top=0;left=0;bottom=0;right=0;align=left;spacingLeft=2;overflow=hidden;fontSize=11;" vertex="1" parent="qmjsJyWAmWsWZpzAhETN-109">
          <mxGeometry width="24" height="22" as="geometry">
            <mxRectangle width="24" height="22" as="alternateBounds" />
          </mxGeometry>
        </mxCell>
        <mxCell id="qmjsJyWAmWsWZpzAhETN-111" value="reservasi_id" style="shape=partialRectangle;connectable=0;fillColor=none;top=0;left=0;bottom=0;right=0;align=left;spacingLeft=2;overflow=hidden;fontSize=11;" vertex="1" parent="qmjsJyWAmWsWZpzAhETN-109">
          <mxGeometry x="24" width="124" height="22" as="geometry">
            <mxRectangle width="124" height="22" as="alternateBounds" />
          </mxGeometry>
        </mxCell>
        <mxCell id="qmjsJyWAmWsWZpzAhETN-112" style="shape=tableRow;horizontal=0;startSize=0;swimlaneHead=0;swimlaneBody=0;fillColor=none;collapsible=0;dropTarget=0;points=[[0,0.5],[1,0.5]];portConstraint=eastwest;top=0;left=0;right=0;bottom=0;" vertex="1" parent="qmjsJyWAmWsWZpzAhETN-108">
          <mxGeometry y="47" width="148" height="22" as="geometry" />
        </mxCell>
        <mxCell id="qmjsJyWAmWsWZpzAhETN-113" value="int" style="shape=partialRectangle;connectable=0;fillColor=none;top=0;left=0;bottom=0;right=0;align=left;spacingLeft=2;overflow=hidden;fontSize=11;" vertex="1" parent="qmjsJyWAmWsWZpzAhETN-112">
          <mxGeometry width="24" height="22" as="geometry">
            <mxRectangle width="24" height="22" as="alternateBounds" />
          </mxGeometry>
        </mxCell>
        <mxCell id="qmjsJyWAmWsWZpzAhETN-114" value="anggota_id" style="shape=partialRectangle;connectable=0;fillColor=none;top=0;left=0;bottom=0;right=0;align=left;spacingLeft=2;overflow=hidden;fontSize=11;" vertex="1" parent="qmjsJyWAmWsWZpzAhETN-112">
          <mxGeometry x="24" width="124" height="22" as="geometry">
            <mxRectangle width="124" height="22" as="alternateBounds" />
          </mxGeometry>
        </mxCell>
        <mxCell id="qmjsJyWAmWsWZpzAhETN-115" style="shape=tableRow;horizontal=0;startSize=0;swimlaneHead=0;swimlaneBody=0;fillColor=none;collapsible=0;dropTarget=0;points=[[0,0.5],[1,0.5]];portConstraint=eastwest;top=0;left=0;right=0;bottom=0;" vertex="1" parent="qmjsJyWAmWsWZpzAhETN-108">
          <mxGeometry y="69" width="148" height="22" as="geometry" />
        </mxCell>
        <mxCell id="qmjsJyWAmWsWZpzAhETN-116" value="int" style="shape=partialRectangle;connectable=0;fillColor=none;top=0;left=0;bottom=0;right=0;align=left;spacingLeft=2;overflow=hidden;fontSize=11;" vertex="1" parent="qmjsJyWAmWsWZpzAhETN-115">
          <mxGeometry width="24" height="22" as="geometry">
            <mxRectangle width="24" height="22" as="alternateBounds" />
          </mxGeometry>
        </mxCell>
        <mxCell id="qmjsJyWAmWsWZpzAhETN-117" value="buku_id" style="shape=partialRectangle;connectable=0;fillColor=none;top=0;left=0;bottom=0;right=0;align=left;spacingLeft=2;overflow=hidden;fontSize=11;" vertex="1" parent="qmjsJyWAmWsWZpzAhETN-115">
          <mxGeometry x="24" width="124" height="22" as="geometry">
            <mxRectangle width="124" height="22" as="alternateBounds" />
          </mxGeometry>
        </mxCell>
        <mxCell id="qmjsJyWAmWsWZpzAhETN-118" style="shape=tableRow;horizontal=0;startSize=0;swimlaneHead=0;swimlaneBody=0;fillColor=none;collapsible=0;dropTarget=0;points=[[0,0.5],[1,0.5]];portConstraint=eastwest;top=0;left=0;right=0;bottom=0;" vertex="1" parent="qmjsJyWAmWsWZpzAhETN-108">
          <mxGeometry y="91" width="148" height="22" as="geometry" />
        </mxCell>
        <mxCell id="qmjsJyWAmWsWZpzAhETN-119" value="date" style="shape=partialRectangle;connectable=0;fillColor=none;top=0;left=0;bottom=0;right=0;align=left;spacingLeft=2;overflow=hidden;fontSize=11;" vertex="1" parent="qmjsJyWAmWsWZpzAhETN-118">
          <mxGeometry width="24" height="22" as="geometry">
            <mxRectangle width="24" height="22" as="alternateBounds" />
          </mxGeometry>
        </mxCell>
        <mxCell id="qmjsJyWAmWsWZpzAhETN-120" value="tanggal_reservasi" style="shape=partialRectangle;connectable=0;fillColor=none;top=0;left=0;bottom=0;right=0;align=left;spacingLeft=2;overflow=hidden;fontSize=11;" vertex="1" parent="qmjsJyWAmWsWZpzAhETN-118">
          <mxGeometry x="24" width="124" height="22" as="geometry">
            <mxRectangle width="124" height="22" as="alternateBounds" />
          </mxGeometry>
        </mxCell>
        <mxCell id="qmjsJyWAmWsWZpzAhETN-121" style="shape=tableRow;horizontal=0;startSize=0;swimlaneHead=0;swimlaneBody=0;fillColor=none;collapsible=0;dropTarget=0;points=[[0,0.5],[1,0.5]];portConstraint=eastwest;top=0;left=0;right=0;bottom=0;" vertex="1" parent="qmjsJyWAmWsWZpzAhETN-108">
          <mxGeometry y="113" width="148" height="22" as="geometry" />
        </mxCell>
        <mxCell id="qmjsJyWAmWsWZpzAhETN-122" value="enum" style="shape=partialRectangle;connectable=0;fillColor=none;top=0;left=0;bottom=0;right=0;align=left;spacingLeft=2;overflow=hidden;fontSize=11;" vertex="1" parent="qmjsJyWAmWsWZpzAhETN-121">
          <mxGeometry width="24" height="22" as="geometry">
            <mxRectangle width="24" height="22" as="alternateBounds" />
          </mxGeometry>
        </mxCell>
        <mxCell id="qmjsJyWAmWsWZpzAhETN-123" value="status" style="shape=partialRectangle;connectable=0;fillColor=none;top=0;left=0;bottom=0;right=0;align=left;spacingLeft=2;overflow=hidden;fontSize=11;" vertex="1" parent="qmjsJyWAmWsWZpzAhETN-121">
          <mxGeometry x="24" width="124" height="22" as="geometry">
            <mxRectangle width="124" height="22" as="alternateBounds" />
          </mxGeometry>
        </mxCell>
        <mxCell id="qmjsJyWAmWsWZpzAhETN-124" value="DENDA" style="shape=table;startSize=25;container=1;collapsible=0;childLayout=tableLayout;fixedRows=1;rowLines=1;fontStyle=1;align=center;resizeLast=1;fillColor=#fa6800;fontColor=#000000;strokeColor=#C73500;" vertex="1" parent="1">
          <mxGeometry x="153" y="832" width="150" height="157" as="geometry" />
        </mxCell>
        <mxCell id="qmjsJyWAmWsWZpzAhETN-125" style="shape=tableRow;horizontal=0;startSize=0;swimlaneHead=0;swimlaneBody=0;fillColor=none;collapsible=0;dropTarget=0;points=[[0,0.5],[1,0.5]];portConstraint=eastwest;top=0;left=0;right=0;bottom=0;" vertex="1" parent="qmjsJyWAmWsWZpzAhETN-124">
          <mxGeometry y="25" width="150" height="22" as="geometry" />
        </mxCell>
        <mxCell id="qmjsJyWAmWsWZpzAhETN-126" value="int" style="shape=partialRectangle;connectable=0;fillColor=none;top=0;left=0;bottom=0;right=0;align=left;spacingLeft=2;overflow=hidden;fontSize=11;" vertex="1" parent="qmjsJyWAmWsWZpzAhETN-125">
          <mxGeometry width="42" height="22" as="geometry">
            <mxRectangle width="42" height="22" as="alternateBounds" />
          </mxGeometry>
        </mxCell>
        <mxCell id="qmjsJyWAmWsWZpzAhETN-127" value="denda_id" style="shape=partialRectangle;connectable=0;fillColor=none;top=0;left=0;bottom=0;right=0;align=left;spacingLeft=2;overflow=hidden;fontSize=11;" vertex="1" parent="qmjsJyWAmWsWZpzAhETN-125">
          <mxGeometry x="42" width="108" height="22" as="geometry">
            <mxRectangle width="108" height="22" as="alternateBounds" />
          </mxGeometry>
        </mxCell>
        <mxCell id="qmjsJyWAmWsWZpzAhETN-128" style="shape=tableRow;horizontal=0;startSize=0;swimlaneHead=0;swimlaneBody=0;fillColor=none;collapsible=0;dropTarget=0;points=[[0,0.5],[1,0.5]];portConstraint=eastwest;top=0;left=0;right=0;bottom=0;" vertex="1" parent="qmjsJyWAmWsWZpzAhETN-124">
          <mxGeometry y="47" width="150" height="22" as="geometry" />
        </mxCell>
        <mxCell id="qmjsJyWAmWsWZpzAhETN-129" value="int" style="shape=partialRectangle;connectable=0;fillColor=none;top=0;left=0;bottom=0;right=0;align=left;spacingLeft=2;overflow=hidden;fontSize=11;" vertex="1" parent="qmjsJyWAmWsWZpzAhETN-128">
          <mxGeometry width="42" height="22" as="geometry">
            <mxRectangle width="42" height="22" as="alternateBounds" />
          </mxGeometry>
        </mxCell>
        <mxCell id="qmjsJyWAmWsWZpzAhETN-130" value="anggota_id" style="shape=partialRectangle;connectable=0;fillColor=none;top=0;left=0;bottom=0;right=0;align=left;spacingLeft=2;overflow=hidden;fontSize=11;" vertex="1" parent="qmjsJyWAmWsWZpzAhETN-128">
          <mxGeometry x="42" width="108" height="22" as="geometry">
            <mxRectangle width="108" height="22" as="alternateBounds" />
          </mxGeometry>
        </mxCell>
        <mxCell id="qmjsJyWAmWsWZpzAhETN-131" style="shape=tableRow;horizontal=0;startSize=0;swimlaneHead=0;swimlaneBody=0;fillColor=none;collapsible=0;dropTarget=0;points=[[0,0.5],[1,0.5]];portConstraint=eastwest;top=0;left=0;right=0;bottom=0;" vertex="1" parent="qmjsJyWAmWsWZpzAhETN-124">
          <mxGeometry y="69" width="150" height="22" as="geometry" />
        </mxCell>
        <mxCell id="qmjsJyWAmWsWZpzAhETN-132" value="int" style="shape=partialRectangle;connectable=0;fillColor=none;top=0;left=0;bottom=0;right=0;align=left;spacingLeft=2;overflow=hidden;fontSize=11;" vertex="1" parent="qmjsJyWAmWsWZpzAhETN-131">
          <mxGeometry width="42" height="22" as="geometry">
            <mxRectangle width="42" height="22" as="alternateBounds" />
          </mxGeometry>
        </mxCell>
        <mxCell id="qmjsJyWAmWsWZpzAhETN-133" value="peminjaman_id" style="shape=partialRectangle;connectable=0;fillColor=none;top=0;left=0;bottom=0;right=0;align=left;spacingLeft=2;overflow=hidden;fontSize=11;" vertex="1" parent="qmjsJyWAmWsWZpzAhETN-131">
          <mxGeometry x="42" width="108" height="22" as="geometry">
            <mxRectangle width="108" height="22" as="alternateBounds" />
          </mxGeometry>
        </mxCell>
        <mxCell id="qmjsJyWAmWsWZpzAhETN-134" style="shape=tableRow;horizontal=0;startSize=0;swimlaneHead=0;swimlaneBody=0;fillColor=none;collapsible=0;dropTarget=0;points=[[0,0.5],[1,0.5]];portConstraint=eastwest;top=0;left=0;right=0;bottom=0;" vertex="1" parent="qmjsJyWAmWsWZpzAhETN-124">
          <mxGeometry y="91" width="150" height="22" as="geometry" />
        </mxCell>
        <mxCell id="qmjsJyWAmWsWZpzAhETN-135" value="decimal" style="shape=partialRectangle;connectable=0;fillColor=none;top=0;left=0;bottom=0;right=0;align=left;spacingLeft=2;overflow=hidden;fontSize=11;" vertex="1" parent="qmjsJyWAmWsWZpzAhETN-134">
          <mxGeometry width="42" height="22" as="geometry">
            <mxRectangle width="42" height="22" as="alternateBounds" />
          </mxGeometry>
        </mxCell>
        <mxCell id="qmjsJyWAmWsWZpzAhETN-136" value="jumlah_denda" style="shape=partialRectangle;connectable=0;fillColor=none;top=0;left=0;bottom=0;right=0;align=left;spacingLeft=2;overflow=hidden;fontSize=11;" vertex="1" parent="qmjsJyWAmWsWZpzAhETN-134">
          <mxGeometry x="42" width="108" height="22" as="geometry">
            <mxRectangle width="108" height="22" as="alternateBounds" />
          </mxGeometry>
        </mxCell>
        <mxCell id="qmjsJyWAmWsWZpzAhETN-137" style="shape=tableRow;horizontal=0;startSize=0;swimlaneHead=0;swimlaneBody=0;fillColor=none;collapsible=0;dropTarget=0;points=[[0,0.5],[1,0.5]];portConstraint=eastwest;top=0;left=0;right=0;bottom=0;" vertex="1" parent="qmjsJyWAmWsWZpzAhETN-124">
          <mxGeometry y="113" width="150" height="22" as="geometry" />
        </mxCell>
        <mxCell id="qmjsJyWAmWsWZpzAhETN-138" value="date" style="shape=partialRectangle;connectable=0;fillColor=none;top=0;left=0;bottom=0;right=0;align=left;spacingLeft=2;overflow=hidden;fontSize=11;" vertex="1" parent="qmjsJyWAmWsWZpzAhETN-137">
          <mxGeometry width="42" height="22" as="geometry">
            <mxRectangle width="42" height="22" as="alternateBounds" />
          </mxGeometry>
        </mxCell>
        <mxCell id="qmjsJyWAmWsWZpzAhETN-139" value="tanggal_denda" style="shape=partialRectangle;connectable=0;fillColor=none;top=0;left=0;bottom=0;right=0;align=left;spacingLeft=2;overflow=hidden;fontSize=11;" vertex="1" parent="qmjsJyWAmWsWZpzAhETN-137">
          <mxGeometry x="42" width="108" height="22" as="geometry">
            <mxRectangle width="108" height="22" as="alternateBounds" />
          </mxGeometry>
        </mxCell>
        <mxCell id="qmjsJyWAmWsWZpzAhETN-140" style="shape=tableRow;horizontal=0;startSize=0;swimlaneHead=0;swimlaneBody=0;fillColor=none;collapsible=0;dropTarget=0;points=[[0,0.5],[1,0.5]];portConstraint=eastwest;top=0;left=0;right=0;bottom=0;" vertex="1" parent="qmjsJyWAmWsWZpzAhETN-124">
          <mxGeometry y="135" width="150" height="22" as="geometry" />
        </mxCell>
        <mxCell id="qmjsJyWAmWsWZpzAhETN-141" value="enum" style="shape=partialRectangle;connectable=0;fillColor=none;top=0;left=0;bottom=0;right=0;align=left;spacingLeft=2;overflow=hidden;fontSize=11;" vertex="1" parent="qmjsJyWAmWsWZpzAhETN-140">
          <mxGeometry width="42" height="22" as="geometry">
            <mxRectangle width="42" height="22" as="alternateBounds" />
          </mxGeometry>
        </mxCell>
        <mxCell id="qmjsJyWAmWsWZpzAhETN-142" value="status" style="shape=partialRectangle;connectable=0;fillColor=none;top=0;left=0;bottom=0;right=0;align=left;spacingLeft=2;overflow=hidden;fontSize=11;" vertex="1" parent="qmjsJyWAmWsWZpzAhETN-140">
          <mxGeometry x="42" width="108" height="22" as="geometry">
            <mxRectangle width="108" height="22" as="alternateBounds" />
          </mxGeometry>
        </mxCell>
        <mxCell id="qmjsJyWAmWsWZpzAhETN-143" value="memiliki" style="curved=1;startArrow=ERmandOne;startSize=10;;endArrow=ERmany;endSize=10;;exitX=1;exitY=0.8;entryX=0;entryY=0.18;rounded=0;fontSize=12;" edge="1" parent="1" source="qmjsJyWAmWsWZpzAhETN-1" target="qmjsJyWAmWsWZpzAhETN-61">
          <mxGeometry relative="1" as="geometry">
            <Array as="points">
              <mxPoint x="365" y="482" />
            </Array>
          </mxGeometry>
        </mxCell>
        <mxCell id="qmjsJyWAmWsWZpzAhETN-144" value="memiliki" style="curved=1;startArrow=ERmandOne;startSize=10;;endArrow=ERmany;endSize=10;;exitX=0.69;exitY=1;entryX=0.35;entryY=0;rounded=0;fontSize=12;" edge="1" parent="1" source="qmjsJyWAmWsWZpzAhETN-1" target="qmjsJyWAmWsWZpzAhETN-108">
          <mxGeometry relative="1" as="geometry">
            <Array as="points">
              <mxPoint x="165" y="482" />
            </Array>
          </mxGeometry>
        </mxCell>
        <mxCell id="qmjsJyWAmWsWZpzAhETN-145" value="memiliki" style="curved=1;startArrow=ERmandOne;startSize=10;;endArrow=ERmany;endSize=10;;exitX=0.25;exitY=1;entryX=0;entryY=0.19;rounded=0;fontSize=12;" edge="1" parent="1" source="qmjsJyWAmWsWZpzAhETN-1" target="qmjsJyWAmWsWZpzAhETN-124">
          <mxGeometry relative="1" as="geometry">
            <Array as="points">
              <mxPoint x="28" y="482" />
              <mxPoint x="28" y="782" />
            </Array>
          </mxGeometry>
        </mxCell>
        <mxCell id="qmjsJyWAmWsWZpzAhETN-146" value="mengelompokkan" style="curved=1;startArrow=ERmandOne;startSize=10;;endArrow=ERmany;endSize=10;;exitX=0.5;exitY=1;entryX=0.5;entryY=0;rounded=0;fontSize=12;" edge="1" parent="1" source="qmjsJyWAmWsWZpzAhETN-23" target="qmjsJyWAmWsWZpzAhETN-33">
          <mxGeometry relative="1" as="geometry">
            <Array as="points" />
          </mxGeometry>
        </mxCell>
        <mxCell id="qmjsJyWAmWsWZpzAhETN-147" value="dipinjam" style="curved=1;startArrow=ERmandOne;startSize=10;;endArrow=ERmany;endSize=10;;exitX=0.85;exitY=1;entryX=0.09;entryY=0;rounded=0;fontSize=12;" edge="1" parent="1" source="qmjsJyWAmWsWZpzAhETN-33" target="qmjsJyWAmWsWZpzAhETN-61">
          <mxGeometry relative="1" as="geometry">
            <Array as="points">
              <mxPoint x="465" y="482" />
            </Array>
          </mxGeometry>
        </mxCell>
        <mxCell id="qmjsJyWAmWsWZpzAhETN-148" value="dipesan" style="curved=1;startArrow=ERmandOne;startSize=10;;endArrow=ERmany;endSize=10;;exitX=0;exitY=0.97;entryX=0.65;entryY=0;rounded=0;fontSize=12;" edge="1" parent="1" source="qmjsJyWAmWsWZpzAhETN-33" target="qmjsJyWAmWsWZpzAhETN-108">
          <mxGeometry relative="1" as="geometry">
            <Array as="points">
              <mxPoint x="265" y="482" />
            </Array>
          </mxGeometry>
        </mxCell>
        <mxCell id="qmjsJyWAmWsWZpzAhETN-149" value="menghasilkan" style="curved=1;startArrow=ERmandOne;startSize=10;;endArrow=ERmany;endSize=10;;exitX=0.5;exitY=1;entryX=1;entryY=0.32;rounded=0;fontSize=12;" edge="1" parent="1" source="qmjsJyWAmWsWZpzAhETN-61" target="qmjsJyWAmWsWZpzAhETN-124">
          <mxGeometry relative="1" as="geometry">
            <Array as="points">
              <mxPoint x="575" y="782" />
            </Array>
          </mxGeometry>
        </mxCell>
        <mxCell id="qmjsJyWAmWsWZpzAhETN-150" value="mengelola" style="curved=1;startArrow=ERmandOne;startSize=10;;endArrow=ERmany;endSize=10;;exitX=0.5;exitY=1;entryX=0.76;entryY=0;rounded=0;fontSize=12;" edge="1" parent="1" source="qmjsJyWAmWsWZpzAhETN-86" target="qmjsJyWAmWsWZpzAhETN-61">
          <mxGeometry relative="1" as="geometry">
            <Array as="points">
              <mxPoint x="643" y="482" />
            </Array>
          </mxGeometry>
        </mxCell>
      </root>
    </mxGraphModel>
  </diagram>
</mxfile>
